<?xml version="1.0" encoding="UTF-8"?>
<!DOCTYPE svg PUBLIC "-//W3C//DTD SVG 1.1//EN" "http://www.w3.org/Graphics/SVG/1.1/DTD/svg11.dtd">
<svg xmlns="http://www.w3.org/2000/svg" version="1.1" width="512px" height="512px" style="shape-rendering:geometricPrecision; text-rendering:geometricPrecision; image-rendering:optimizeQuality; fill-rule:evenodd; clip-rule:evenodd" xmlns:xlink="http://www.w3.org/1999/xlink">
<g><path style="opacity:0.991" fill="#e43834" d="M 154.5,31.5 C 179.906,28.7888 203.906,33.2888 226.5,45C 258.49,65.9182 271.324,95.4182 265,133.5C 261.087,152.531 252.254,168.364 238.5,181C 226.362,169.863 214.529,158.363 203,146.5C 201.667,144.5 200.333,142.5 199,140.5C 201.236,128.658 201.903,116.658 201,104.5C 197.506,87.3378 187.172,77.3378 170,74.5C 155.637,76.1914 145.971,83.8581 141,97.5C 139.485,103.075 138.485,108.742 138,114.5C 131.15,126.249 128.316,138.916 129.5,152.5C 126.286,151.56 123.286,150.06 120.5,148C 108.598,137.03 100.098,123.864 95,108.5C 87.1179,123.151 83.1179,138.818 83,155.5C 68.0078,122.447 71.3411,91.4472 93,62.5C 109.971,45.0981 130.471,34.7647 154.5,31.5 Z"/></g>
<g><path style="opacity:0.982" fill="#e53834" d="M 150.5,116.5 C 153.284,135.882 162.284,152.049 177.5,165C 193.891,177.054 208.725,190.888 222,206.5C 222.315,205.092 221.982,203.759 221,202.5C 218.667,199.167 216.333,195.833 214,192.5C 201.938,179.769 189.271,167.769 176,156.5C 171.113,143.91 171.78,131.577 178,119.5C 179.513,130.85 183.513,141.183 190,150.5C 204.032,166.2 219.032,180.866 235,194.5C 246.67,207.181 252.837,222.181 253.5,239.5C 258.775,241.778 261.775,245.778 262.5,251.5C 267.587,249.246 271.587,245.746 274.5,241C 275.483,240.409 276.15,240.743 276.5,242C 277.228,257.149 272.728,270.649 263,282.5C 260.129,286.016 256.629,288.683 252.5,290.5C 253.755,276.531 247.422,268.364 233.5,266C 227.843,265.501 222.176,265.334 216.5,265.5C 218.293,260.739 219.96,255.906 221.5,251C 221.516,248.695 220.516,247.028 218.5,246C 202.059,242.875 185.726,243.541 169.5,248C 175.089,249.272 180.589,250.772 186,252.5C 184.908,256.784 183.575,261.118 182,265.5C 181.333,268.5 181.333,271.5 182,274.5C 184.111,278.944 187.111,279.611 191,276.5C 190.67,282.479 190.67,288.479 191,294.5C 194.327,297.154 198.161,298.154 202.5,297.5C 200.947,302.576 197.947,306.743 193.5,310C 184.976,316.766 175.31,319.766 164.5,319C 169.742,315.592 173.742,311.092 176.5,305.5C 171.591,304.558 166.757,304.891 162,306.5C 162.642,303.127 164.309,300.127 167,297.5C 175.993,277.321 169.827,264.488 148.5,259C 140.583,258.43 132.916,259.597 125.5,262.5C 125.167,262.167 124.833,261.833 124.5,261.5C 127.254,255.653 130.754,250.32 135,245.5C 139.899,241.301 145.066,237.468 150.5,234C 144.405,231.135 138.072,228.968 131.5,227.5C 141.275,221.119 151.942,216.619 163.5,214C 143.198,213.21 125.531,219.543 110.5,233C 115.398,234.451 120.398,235.784 125.5,237C 127.301,237.317 127.634,237.984 126.5,239C 107.551,245.305 90.2181,254.472 74.5,266.5C 74.1667,266.167 73.8333,265.833 73.5,265.5C 78.9078,254.965 78.7411,244.631 73,234.5C 69.7025,231.433 65.8692,229.267 61.5,228C 54.8847,226.892 48.218,226.225 41.5,226C 53.0211,217.735 65.3544,210.735 78.5,205C 82.8976,202.271 86.2309,198.604 88.5,194C 84.2235,184.216 77.5568,176.383 68.5,170.5C 70.3333,170.167 72.1667,169.833 74,169.5C 83.6493,170.18 93.1493,171.346 102.5,173C 96.5444,162.813 95.0444,151.98 98,140.5C 101.787,145.956 105.954,151.123 110.5,156C 125.567,166.062 140.9,175.729 156.5,185C 160,188.5 163.5,192 167,195.5C 166.129,191.09 164.129,187.09 161,183.5C 154.979,178.477 149.312,173.144 144,167.5C 139.955,149.712 142.121,132.712 150.5,116.5 Z M 202.5,214.5 C 205.698,213.719 208.698,214.553 211.5,217C 216.727,220.888 220.393,225.888 222.5,232C 215.553,232.19 210.053,229.023 206,222.5C 204.522,219.842 203.355,217.175 202.5,214.5 Z"/></g>
<g><path style="opacity:0.982" fill="#e53834" d="M 389.5,180.5 C 391.199,180.34 392.866,180.506 394.5,181C 388.639,184.028 384.306,188.528 381.5,194.5C 383.441,197.334 386.107,198.168 389.5,197C 428.139,184.246 461.806,192.079 490.5,220.5C 479.919,220.117 469.252,220.617 458.5,222C 445.513,225.334 432.847,229.5 420.5,234.5C 387.423,221.251 360.923,229.251 341,258.5C 329.499,276.527 318.999,295.193 309.5,314.5C 302.356,309.191 295.356,303.691 288.5,298C 285.006,296.421 281.673,294.587 278.5,292.5C 292.52,272.976 308.52,255.142 326.5,239C 344.419,225.688 364.419,217.022 386.5,213C 360.532,213.985 337.199,222.318 316.5,238C 310.35,243.316 304.35,248.816 298.5,254.5C 298.134,251.564 298.634,248.564 300,245.5C 309.629,223.536 324.629,206.203 345,193.5C 344.201,197.441 342.534,201.107 340,204.5C 339.054,206.956 339.554,208.956 341.5,210.5C 351.483,204.17 361.15,197.336 370.5,190C 376.647,186.26 382.98,183.093 389.5,180.5 Z"/></g>
<g><path style="opacity:0.993" fill="#e53834" d="M 59.5,244.5 C 62.5242,244.175 64.1909,245.508 64.5,248.5C 60.1194,265.308 58.6194,282.308 60,299.5C 71.687,286.136 84.8536,274.636 99.5,265C 102.715,263.226 106.048,261.726 109.5,260.5C 109.833,261.333 110.167,262.167 110.5,263C 108.941,271.509 107.775,280.009 107,288.5C 114.582,283.291 122.416,278.457 130.5,274C 135.86,272.056 141.193,272.056 146.5,274C 118.213,303.77 111.046,337.936 125,376.5C 141.933,403.528 165.1,410.695 194.5,398C 213.333,387.167 228.167,372.333 239,353.5C 252.63,363.965 265.797,374.965 278.5,386.5C 268.669,404.837 256.336,421.337 241.5,436C 206.879,465.73 167.212,475.397 122.5,465C 111.543,461.688 101.209,457.021 91.5,451C 81.3548,443.022 71.3548,434.856 61.5,426.5C 58.9923,428.272 57.9923,430.772 58.5,434C 58.5608,438.575 59.5608,442.908 61.5,447C 58.224,445.763 55.3906,443.597 53,440.5C 27.7911,408.138 19.7911,371.805 29,331.5C 31.0124,323.783 33.179,316.116 35.5,308.5C 34.7542,307.264 34.4208,305.93 34.5,304.5C 32.3453,304.372 30.3453,304.872 28.5,306C 26,308.5 23.5,311 21,313.5C 22.6076,295.345 28.9409,279.012 40,264.5C 46.0319,257.302 52.5319,250.636 59.5,244.5 Z"/></g>
<g><path style="opacity:0.991" fill="#e53834" d="M 196.5,256.5 C 197.376,256.369 198.043,256.702 198.5,257.5C 200.209,263.376 203.876,267.543 209.5,270C 217.719,272.203 226.052,273.87 234.5,275C 238.333,276.167 240.833,278.667 242,282.5C 242.836,288.685 244.669,294.518 247.5,300C 248.833,300.667 250.167,301.333 251.5,302C 257.826,302.733 264.16,303.399 270.5,304C 274.049,304.774 277.382,306.107 280.5,308C 298.35,322.094 316.017,336.427 333.5,351C 337.898,354.394 342.565,357.394 347.5,360C 361.502,363.75 371.002,358.917 376,345.5C 376.146,340.157 376.146,334.824 376,329.5C 395.986,345.795 399.986,365.462 388,388.5C 386.38,390.241 384.88,392.075 383.5,394C 398.028,396.362 411.695,393.695 424.5,386C 439.718,373.71 440.384,360.71 426.5,347C 422.993,344.746 419.327,342.746 415.5,341C 447.56,339.768 468.726,354.268 479,384.5C 481.589,409.153 471.756,426.986 449.5,438C 435.741,443.752 421.408,447.086 406.5,448C 418.045,458.248 431.212,461.415 446,457.5C 447.257,457.85 447.591,458.517 447,459.5C 419.934,481.721 390.434,485.555 358.5,471C 342.392,459.637 332.725,444.137 329.5,424.5C 320.183,433.983 318.016,444.983 323,457.5C 325.006,461.513 327.506,465.18 330.5,468.5C 314.479,464.984 304.312,454.984 300,438.5C 299.055,434.886 298.388,431.219 298,427.5C 297.667,416.5 297.333,405.5 297,394.5C 295.088,386.84 291.255,380.34 285.5,375C 267.708,360.877 250.208,346.377 233,331.5C 226.275,322.322 222.941,311.989 223,300.5C 222,298.5 221,296.5 220,294.5C 214.314,289.313 208.481,284.313 202.5,279.5C 196.283,272.966 194.283,265.3 196.5,256.5 Z"/></g>
</svg>
